<?xml version="1.0" standalone="no"?>
<!DOCTYPE svg PUBLIC "-//W3C//DTD SVG 20010904//EN"
 "http://www.w3.org/TR/2001/REC-SVG-20010904/DTD/svg10.dtd">
<svg version="1.0" xmlns="http://www.w3.org/2000/svg"
 width="300.000000pt" height="302.000000pt" viewBox="0 0 300.000000 302.000000"
 preserveAspectRatio="xMidYMid meet">
<metadata>
Created by potrace 1.10, written by Peter Selinger 2001-2011
</metadata>
<g transform="translate(0.000000,302.000000) scale(0.100000,-0.100000)"
fill="#000000" stroke="none">
<path d="M1862 2869 c-75 -30 -170 -121 -216 -208 -141 -268 -86 -599 115
-700 111 -56 205 -33 320 76 96 92 150 203 168 353 20 156 -15 309 -90 394
-86 97 -191 127 -297 85z"/>
<path d="M937 2866 c-131 -49 -207 -186 -207 -375 0 -178 55 -326 163 -439
158 -164 344 -160 453 10 91 142 86 392 -11 577 -90 170 -272 274 -398 227z"/>
<path d="M2458 2116 c-156 -56 -287 -223 -323 -411 -20 -105 -19 -163 7 -241
27 -82 89 -155 153 -180 144 -55 347 59 438 246 54 109 70 185 65 299 -5 102
-26 161 -83 229 -55 65 -166 90 -257 58z"/>
<path d="M344 2056 c-100 -46 -144 -134 -144 -286 0 -160 53 -292 161 -402
107 -109 246 -160 345 -128 53 18 118 81 145 143 18 42 23 70 23 152 1 117
-12 171 -66 276 -77 151 -234 269 -357 269 -38 0 -73 -8 -107 -24z"/>
<path d="M1378 1565 c-127 -32 -269 -116 -359 -211 -93 -100 -216 -306 -273
-456 -41 -112 -67 -240 -57 -289 13 -66 26 -94 67 -139 62 -68 104 -85 209
-84 79 1 105 6 210 43 214 76 276 92 375 98 117 7 171 -6 365 -85 119 -48 151
-57 217 -60 94 -5 161 15 208 61 123 119 86 316 -115 622 -172 261 -328 412
-499 483 -51 21 -80 26 -176 28 -77 2 -134 -1 -172 -11z"/>
</g>
</svg>
